<?xml version="1.0" encoding="UTF-8"?>
<svg version="1.1" xmlns="http://www.w3.org/2000/svg" width="640" height="640">
<path d="M0 0 C8.19462691 7.71619809 13.73493445 16.4429259 14.08203125 27.85546875 C14.04947917 30.78515625 14.01692708 33.71484375 13.984375 36.64453125 C14.60844238 36.57596924 15.23250977 36.50740723 15.87548828 36.43676758 C25.2702158 35.52314137 34.64594257 35.39029059 44.07714844 35.34936523 C45.94278484 35.33774184 47.80838543 35.31713093 49.67382812 35.2878418 C52.39996415 35.24521615 55.12513503 35.22901793 57.8515625 35.21875 C58.67977509 35.20124191 59.50798767 35.18373383 60.36129761 35.16569519 C65.71626345 35.18573742 68.74182805 36.08270798 72.984375 39.64453125 C75.28515625 42.6328125 75.28515625 42.6328125 77.296875 45.95703125 C78.31201172 47.59091797 78.31201172 47.59091797 79.34765625 49.2578125 C81.07200961 52.82586587 81.51204404 55.73917478 81.984375 59.64453125 C82.91483643 59.6695874 83.84529785 59.69464355 84.80395508 59.72045898 C115.99571665 60.57067017 115.99571665 60.57067017 127.109375 61.08203125 C127.81553955 61.109021 128.5217041 61.13601074 129.24926758 61.16381836 C139.07333494 61.66567259 148.48005818 64.49390645 155.296875 71.89453125 C162.27483224 80.79142673 163.12874993 90.17806123 163.15795898 101.11035156 C163.164646 102.15613373 163.17133301 103.20191589 163.17822266 104.27938843 C163.19227268 106.55782154 163.20416689 108.83626873 163.21417046 111.11472321 C163.2308015 114.79631674 163.25407643 118.47781702 163.27906799 122.15936279 C163.3490148 132.63288735 163.40793785 143.10645615 163.46118164 153.58007812 C163.78132411 214.86453975 165.74186936 275.91922162 169.5218603 337.08668363 C169.97011618 344.34554981 170.407413 351.60506402 170.84378016 358.86465311 C171.40006435 368.11851941 171.95799084 377.37227984 172.52412415 386.62554932 C173.31348049 399.53092988 174.0947596 412.43662409 174.83862305 425.34472656 C174.90560489 426.50296212 174.97258673 427.66119768 175.04159832 428.85453129 C175.34926992 434.17854306 175.65438478 439.50267376 175.95420837 444.82713318 C177.57860381 473.2654304 180.07020998 501.57833961 184.16015625 529.76953125 C186.42955004 545.58728153 188.51573762 564.09284593 178.71484375 577.82421875 C169.88522988 586.94436355 154.98819852 593.28159683 142.38061523 593.78979492 C141.01810906 593.80296691 139.6555366 593.81016813 138.29296875 593.8125 C137.15978462 593.81858025 137.15978462 593.81858025 136.00370789 593.82478333 C133.47638876 593.83437995 130.9492103 593.83414455 128.421875 593.83203125 C127.08295197 593.8331189 127.08295197 593.8331189 125.71697998 593.83422852 C111.57666068 593.83298757 97.48008901 593.40389522 83.35464478 592.78619385 C36.97763471 590.76174344 -9.62892472 590.84627049 -56.015625 592.64453125 C-56.78497375 592.67375671 -57.55432251 592.70298218 -58.34698486 592.73309326 C-97.4337182 594.23888616 -136.17128111 598.3734476 -174.96606445 603.27026367 C-176.14920731 603.41939209 -177.33235016 603.56852051 -178.55134583 603.72216797 C-180.76009207 604.00144816 -182.96859967 604.28262577 -185.17680359 604.56616211 C-222.585141 609.31287453 -222.585141 609.31287453 -239.28125 597.828125 C-248.98095238 590.08221982 -259.55074582 580.63544976 -261.015625 567.64453125 C-261.65280101 545.84962043 -259.08362104 524.30172138 -256.078125 502.76953125 C-252.31597685 475.71072098 -250.32486394 448.67726317 -249.02734375 421.3984375 C-248.96369283 420.06744333 -248.96369283 420.06744333 -248.89875603 418.70956039 C-247.93353861 398.32544495 -247.32422776 377.93354918 -246.75411987 357.53518677 C-246.44919709 346.63510303 -246.12681311 335.73552412 -245.8046875 324.8359375 C-245.75601815 323.18497605 -245.75601815 323.18497605 -245.70636559 321.50066185 C-245.03376939 298.73329836 -244.27059047 275.96962228 -243.453125 253.20703125 C-243.42169277 252.32890274 -243.39026054 251.45077423 -243.35787582 250.54603577 C-242.60412187 229.50398293 -241.78201384 208.46816297 -240.76583862 187.43688965 C-240.07118193 172.94659175 -239.75838447 158.46133213 -239.515625 143.95703125 C-239.26931504 129.31632806 -238.92260939 114.70175644 -238.078125 100.08203125 C-238.02156738 99.04666733 -238.02156738 99.04666733 -237.96386719 97.99038696 C-236.88814093 78.73108679 -236.88814093 78.73108679 -232.703125 72.26953125 C-232.31511719 71.64304687 -231.92710937 71.0165625 -231.52734375 70.37109375 C-227.69482168 65.99389801 -222.92740826 64.92472393 -217.390625 64.01953125 C-216.639021 63.89400879 -215.88741699 63.76848633 -215.11303711 63.63916016 C-206.43693608 62.2797876 -197.78276669 61.91064797 -189.015625 61.64453125 C-187.6282507 61.60056516 -186.24088126 61.55644561 -184.85351562 61.51220703 C-174.90823068 61.1975349 -164.96227661 60.91238203 -155.015625 60.64453125 C-154.68876709 59.54608887 -154.36190918 58.44764648 -154.02514648 57.31591797 C-153.58351837 55.860246 -153.14152303 54.40468541 -152.69921875 52.94921875 C-152.48535522 52.22694092 -152.2714917 51.50466309 -152.05114746 50.76049805 C-150.41393419 45.41094564 -148.50897832 40.25144072 -144.015625 36.64453125 C-139.37394746 34.75594655 -135.43990465 34.39841194 -130.44921875 34.4140625 C-129.73387466 34.41452072 -129.01853058 34.41497894 -128.2815094 34.41545105 C-126.77123348 34.41845951 -125.26096029 34.42630345 -123.75073242 34.4387207 C-121.48409516 34.45678444 -119.21787313 34.45923121 -116.95117188 34.45898438 C-94.55382551 34.51263916 -94.55382551 34.51263916 -87.015625 36.64453125 C-87.06203125 36.09667969 -87.1084375 35.54882812 -87.15625 34.984375 C-87.7120515 22.776592 -83.89507282 8.419325 -75.609375 -0.8515625 C-54.39566826 -20.86939851 -21.85734168 -17.07250911 0 0 Z " fill="#FDFDFD" transform="translate(356.015625,19.35546875)"/>
<path d="M0 0 C8.19462691 7.71619809 13.73493445 16.4429259 14.08203125 27.85546875 C14.04947917 30.78515625 14.01692708 33.71484375 13.984375 36.64453125 C14.60844238 36.57596924 15.23250977 36.50740723 15.87548828 36.43676758 C25.2702158 35.52314137 34.64594257 35.39029059 44.07714844 35.34936523 C45.94278484 35.33774184 47.80838543 35.31713093 49.67382812 35.2878418 C52.39996415 35.24521615 55.12513503 35.22901793 57.8515625 35.21875 C58.67977509 35.20124191 59.50798767 35.18373383 60.36129761 35.16569519 C65.71626345 35.18573742 68.74182805 36.08270798 72.984375 39.64453125 C75.28515625 42.6328125 75.28515625 42.6328125 77.296875 45.95703125 C78.31201172 47.59091797 78.31201172 47.59091797 79.34765625 49.2578125 C81.07200961 52.82586587 81.51204404 55.73917478 81.984375 59.64453125 C82.91483643 59.6695874 83.84529785 59.69464355 84.80395508 59.72045898 C115.99571665 60.57067017 115.99571665 60.57067017 127.109375 61.08203125 C127.81553955 61.109021 128.5217041 61.13601074 129.24926758 61.16381836 C139.07333494 61.66567259 148.48005818 64.49390645 155.296875 71.89453125 C162.27483224 80.79142673 163.12874993 90.17806123 163.15795898 101.11035156 C163.164646 102.15613373 163.17133301 103.20191589 163.17822266 104.27938843 C163.19227268 106.55782154 163.20416689 108.83626873 163.21417046 111.11472321 C163.2308015 114.79631674 163.25407643 118.47781702 163.27906799 122.15936279 C163.3490148 132.63288735 163.40793785 143.10645615 163.46118164 153.58007812 C163.78132411 214.86453975 165.74186936 275.91922162 169.5218603 337.08668363 C169.97011618 344.34554981 170.407413 351.60506402 170.84378016 358.86465311 C171.40006435 368.11851941 171.95799084 377.37227984 172.52412415 386.62554932 C173.31348049 399.53092988 174.0947596 412.43662409 174.83862305 425.34472656 C174.90560489 426.50296212 174.97258673 427.66119768 175.04159832 428.85453129 C175.34926992 434.17854306 175.65438478 439.50267376 175.95420837 444.82713318 C177.57860381 473.2654304 180.07020998 501.57833961 184.16015625 529.76953125 C186.42955004 545.58728153 188.51573762 564.09284593 178.71484375 577.82421875 C169.88522988 586.94436355 154.98819852 593.28159683 142.38061523 593.78979492 C141.01810906 593.80296691 139.6555366 593.81016813 138.29296875 593.8125 C137.15978462 593.81858025 137.15978462 593.81858025 136.00370789 593.82478333 C133.47638876 593.83437995 130.9492103 593.83414455 128.421875 593.83203125 C127.08295197 593.8331189 127.08295197 593.8331189 125.71697998 593.83422852 C111.57666068 593.83298757 97.48008901 593.40389522 83.35464478 592.78619385 C36.97763471 590.76174344 -9.62892472 590.84627049 -56.015625 592.64453125 C-56.78497375 592.67375671 -57.55432251 592.70298218 -58.34698486 592.73309326 C-97.4337182 594.23888616 -136.17128111 598.3734476 -174.96606445 603.27026367 C-176.14920731 603.41939209 -177.33235016 603.56852051 -178.55134583 603.72216797 C-180.76009207 604.00144816 -182.96859967 604.28262577 -185.17680359 604.56616211 C-222.585141 609.31287453 -222.585141 609.31287453 -239.28125 597.828125 C-248.98095238 590.08221982 -259.55074582 580.63544976 -261.015625 567.64453125 C-261.65280101 545.84962043 -259.08362104 524.30172138 -256.078125 502.76953125 C-252.31597685 475.71072098 -250.32486394 448.67726317 -249.02734375 421.3984375 C-248.96369283 420.06744333 -248.96369283 420.06744333 -248.89875603 418.70956039 C-247.93353861 398.32544495 -247.32422776 377.93354918 -246.75411987 357.53518677 C-246.44919709 346.63510303 -246.12681311 335.73552412 -245.8046875 324.8359375 C-245.75601815 323.18497605 -245.75601815 323.18497605 -245.70636559 321.50066185 C-245.03376939 298.73329836 -244.27059047 275.96962228 -243.453125 253.20703125 C-243.42169277 252.32890274 -243.39026054 251.45077423 -243.35787582 250.54603577 C-242.60412187 229.50398293 -241.78201384 208.46816297 -240.76583862 187.43688965 C-240.07118193 172.94659175 -239.75838447 158.46133213 -239.515625 143.95703125 C-239.26931504 129.31632806 -238.92260939 114.70175644 -238.078125 100.08203125 C-238.02156738 99.04666733 -238.02156738 99.04666733 -237.96386719 97.99038696 C-236.88814093 78.73108679 -236.88814093 78.73108679 -232.703125 72.26953125 C-232.31511719 71.64304687 -231.92710937 71.0165625 -231.52734375 70.37109375 C-227.69482168 65.99389801 -222.92740826 64.92472393 -217.390625 64.01953125 C-216.639021 63.89400879 -215.88741699 63.76848633 -215.11303711 63.63916016 C-206.43693608 62.2797876 -197.78276669 61.91064797 -189.015625 61.64453125 C-187.6282507 61.60056516 -186.24088126 61.55644561 -184.85351562 61.51220703 C-174.90823068 61.1975349 -164.96227661 60.91238203 -155.015625 60.64453125 C-154.68876709 59.54608887 -154.36190918 58.44764648 -154.02514648 57.31591797 C-153.58351837 55.860246 -153.14152303 54.40468541 -152.69921875 52.94921875 C-152.48535522 52.22694092 -152.2714917 51.50466309 -152.05114746 50.76049805 C-150.41393419 45.41094564 -148.50897832 40.25144072 -144.015625 36.64453125 C-139.37394746 34.75594655 -135.43990465 34.39841194 -130.44921875 34.4140625 C-129.73387466 34.41452072 -129.01853058 34.41497894 -128.2815094 34.41545105 C-126.77123348 34.41845951 -125.26096029 34.42630345 -123.75073242 34.4387207 C-121.48409516 34.45678444 -119.21787313 34.45923121 -116.95117188 34.45898438 C-94.55382551 34.51263916 -94.55382551 34.51263916 -87.015625 36.64453125 C-87.06203125 36.09667969 -87.1084375 35.54882812 -87.15625 34.984375 C-87.7120515 22.776592 -83.89507282 8.419325 -75.609375 -0.8515625 C-54.39566826 -20.86939851 -21.85734168 -17.07250911 0 0 Z M80.984375 85.64453125 C80.94473633 86.47065918 80.90509766 87.29678711 80.86425781 88.14794922 C80.70651851 91.26133957 80.53310883 94.37338128 80.34960938 97.48535156 C80.23688195 99.47527728 80.14167787 101.46617107 80.046875 103.45703125 C79.4988124 112.50006407 78.42883329 120.3842802 72.609375 127.58203125 C65.57274635 133.1108109 58.82194194 133.78617145 50.11938477 133.81811523 C49.35210052 133.82480225 48.58481628 133.83148926 47.79428101 133.83837891 C46.12966533 133.85239133 44.46503087 133.86429738 42.80038643 133.87432671 C40.12173745 133.8909606 37.44321648 133.91422698 34.76463318 133.93922424 C27.14743712 134.00922305 19.53017593 134.06858259 11.9128418 134.12133789 C-7.76231621 134.26104211 -27.38493031 134.5348201 -47.03125 135.66015625 C-63.99207905 136.63085687 -80.90093711 136.98933053 -97.88842773 136.96020508 C-101.66764509 136.95425043 -105.44639734 136.97183364 -109.2255373 136.99454975 C-112.21201846 137.00931111 -115.1983853 137.01015874 -118.18489647 137.00704002 C-119.58055783 137.00754582 -120.97622687 137.01264033 -122.37185097 137.02285194 C-132.79280063 137.09020741 -141.83345011 136.31755298 -150.54296875 130.21875 C-154.80927058 125.65822045 -155.47358593 120.61731426 -155.52734375 114.62109375 C-155.54529495 113.87491791 -155.56324615 113.12874207 -155.58174133 112.35995483 C-155.63555605 109.99653635 -155.66964567 107.63331639 -155.703125 105.26953125 C-155.73632372 103.65882671 -155.77081572 102.04814827 -155.80664062 100.4375 C-155.89126518 96.50665438 -155.95821243 92.57586466 -156.015625 88.64453125 C-183.82561529 86.73901104 -183.82561529 86.73901104 -210.015625 93.64453125 C-210.11376057 98.71101524 -209.74439693 103.5950676 -209.08520508 108.609375 C-208.0720569 116.7938548 -207.37141873 124.97225881 -206.90234375 133.20703125 C-206.8603504 133.93152466 -206.81835705 134.65601807 -206.77509117 135.40246582 C-205.61296673 156.0904283 -205.752388 176.79941705 -205.82000732 197.51239014 C-205.83086783 201.70283167 -205.83042858 205.89324129 -205.83000374 210.08369446 C-205.83138321 268.07725917 -205.83138321 268.07725917 -207.5241394 277.46452332 C-208.08793774 281.11240882 -208.17539924 284.68368729 -208.18920898 288.36450195 C-208.195896 289.11526001 -208.20258301 289.86601807 -208.20947266 290.63952637 C-208.22347284 292.26488472 -208.23538269 293.89026215 -208.24542046 295.5156498 C-208.26200286 298.11484569 -208.28525874 300.71390683 -208.31031799 303.31303406 C-208.38052759 310.70235263 -208.44031697 318.09173349 -208.49243164 325.48120117 C-208.63452174 345.11158545 -208.86576753 364.57875242 -210.79679871 384.13027954 C-211.17197467 388.44094442 -211.34176025 392.75937469 -211.515625 397.08203125 C-211.82232327 403.94428406 -212.38331753 410.72126953 -213.20385742 417.54090881 C-213.88577935 423.25625486 -214.41491603 428.97546367 -214.89453125 434.7109375 C-215.704206 444.19554555 -216.56426525 453.6748433 -217.453125 463.15234375 C-217.51626451 463.82572218 -217.57940403 464.49910061 -217.64445686 465.19288445 C-218.03462974 469.3512517 -218.4260255 473.50950319 -218.81774902 477.66772461 C-219.08173732 480.4717656 -219.34503037 483.27587167 -219.60828304 486.0799818 C-219.86766953 488.84269317 -220.12730127 491.60538145 -220.3869648 494.36806679 C-220.51392308 495.7191237 -220.64081946 497.07018643 -220.76765251 498.42125511 C-221.37986847 504.94170363 -221.995082 511.46175232 -222.63305664 517.97973633 C-222.72574829 518.9319809 -222.81843994 519.88422546 -222.91394043 520.86532593 C-223.08016126 522.56761707 -223.24823677 524.26972893 -223.41882324 525.97158813 C-225.61035109 540.18327057 -225.61035109 540.18327057 -221.73828125 552.9921875 C-217.54390135 557.07824769 -214.88713294 557.8976728 -209.0546875 557.91015625 C-207.28146118 557.91619873 -207.28146118 557.91619873 -205.47241211 557.92236328 C-204.20792236 557.91317871 -202.94343262 557.90399414 -201.640625 557.89453125 C-200.33295166 557.88921387 -199.02527832 557.88389648 -197.67797852 557.87841797 C-188.36721188 557.78850286 -179.20794856 557.22897695 -169.95547485 556.23655701 C-163.72491998 555.59448099 -157.48742751 555.12042787 -151.23974609 554.67993164 C-150.02734945 554.59407083 -148.81495281 554.50821001 -147.56581688 554.41974735 C-134.22721117 553.49383104 -120.87901015 552.76723749 -107.5272603 552.06117129 C-104.03338471 551.87567409 -100.53969493 551.68674158 -97.04598999 551.49806213 C-86.74135067 550.94213777 -76.43645459 550.39103213 -66.13146973 549.84155273 C-58.04670939 549.41041907 -49.962035 548.97779674 -41.87760484 548.54050976 C-37.74479218 548.31713245 -33.61182999 548.09685637 -29.47872281 547.87899959 C-26.31981784 547.71164327 -23.16114959 547.53992087 -20.00244141 547.36889648 C-18.87110779 547.31017868 -17.73977417 547.25146088 -16.57415771 547.19096375 C-11.6499535 546.92051104 -6.86753435 546.57926905 -2.015625 545.64453125 C3.10147623 545.18302894 8.23072669 544.88571093 13.359375 544.58203125 C14.48549698 544.51524673 14.48549698 544.51524673 15.6343689 544.44711304 C31.04998406 543.55507205 46.41409218 543.36433051 61.85552979 543.61132812 C64.05908476 543.64569648 66.26267015 543.67464885 68.46630859 543.703125 C85.40196929 543.93569316 102.24374021 544.53485437 119.109375 546.14453125 C119.79926514 546.21024323 120.48915527 546.2759552 121.19995117 546.34365845 C132.32215682 547.42379186 132.32215682 547.42379186 135.984375 548.64453125 C135.984375 549.96453125 135.984375 551.28453125 135.984375 552.64453125 C134.73822922 552.64231064 133.49208344 552.64009003 132.20817566 552.63780212 C120.48034332 552.61755484 108.75251452 552.60255143 97.02466869 552.59271908 C90.99487265 552.5874943 84.96509068 552.58040396 78.93530273 552.5690918 C73.11926955 552.55824859 67.30324993 552.55225135 61.48720741 552.54965401 C59.26518859 552.54780236 57.04317053 552.54418669 54.82115746 552.53880119 C51.71563471 552.5315718 48.61016844 552.53054112 45.50463867 552.53100586 C44.58035065 552.52741058 43.65606262 552.52381531 42.70376587 552.52011108 C41.43545677 552.52217308 41.43545677 552.52217308 40.14152527 552.52427673 C39.40685626 552.52335494 38.67218725 552.52243315 37.91525555 552.52148342 C35.76431396 552.57607719 35.76431396 552.57607719 32.984375 553.64453125 C30.41802639 553.87171621 27.86759393 554.06061309 25.296875 554.20703125 C24.59498047 554.25021484 23.89308594 554.29339844 23.16992188 554.33789062 C21.44162294 554.44370485 19.7130239 554.54459706 17.984375 554.64453125 C17.984375 554.97453125 17.984375 555.30453125 17.984375 555.64453125 C19.25853271 555.6695874 20.53269043 555.69464355 21.84545898 555.72045898 C26.65591391 555.81593917 31.46627051 555.91579286 36.27661133 556.0168457 C38.34299388 556.05967145 40.4094001 556.10137282 42.47583008 556.1418457 C61.84253957 556.52250658 61.84253957 556.52250658 71.17578125 557.16015625 C82.33536442 557.90590938 93.51793949 557.90405878 104.69824219 557.93969727 C107.23670988 557.95131909 109.77515129 557.97192735 112.31347656 558.0012207 C116.02685741 558.04388406 119.73952968 558.06005074 123.453125 558.0703125 C124.57827515 558.08782059 125.70342529 558.10532867 126.8626709 558.12336731 C134.60401312 558.10211396 141.06434731 557.10048097 147.02392578 551.84643555 C151.32500108 541.98588697 147.20729471 527.47764875 145.109375 517.33203125 C144.83582947 515.95665991 144.56369152 514.58100787 144.29296875 513.20507812 C143.76733367 510.542669 143.23725222 507.88122538 142.70214844 505.22070312 C140.47380931 494.11842029 138.90740473 482.99899927 137.484375 471.76953125 C137.31862976 470.4739328 137.31862976 470.4739328 137.14953613 469.15216064 C135.76394626 458.30776824 134.4418618 447.4672605 133.52929688 436.57080078 C133.2932593 433.75263639 133.05445037 430.98887403 132.48997498 428.21510315 C132.00092254 425.72866225 131.7295622 423.32957429 131.53540039 420.80444336 C131.4618483 419.86833725 131.3882962 418.93223114 131.31251526 417.96775818 C131.23645554 416.96261673 131.16039581 415.95747528 131.08203125 414.921875 C130.99940536 413.86658096 130.91677948 412.81128693 130.83164978 411.72401428 C130.56720943 408.3435678 130.30667721 404.96283713 130.046875 401.58203125 C129.70707311 397.17426934 129.36497599 392.76669838 129.01953125 388.359375 C128.93466461 387.27578705 128.84979797 386.1921991 128.76235962 385.07577515 C128.17072344 377.65313128 127.49109682 370.24388744 126.67848206 362.84202576 C125.17438535 348.72866272 124.83737255 334.67868599 124.85498047 320.5012207 C124.85362175 318.63820359 124.8518392 316.77518675 124.84967041 314.91217041 C124.84515295 309.90206742 124.84686174 304.89198526 124.8500495 299.88188195 C124.8526016 294.61226872 124.85022778 289.34265713 124.84866333 284.07304382 C124.84685038 275.23122847 124.84922542 266.3894215 124.85400391 257.54760742 C124.85944989 247.35352924 124.85767789 237.15947106 124.8521775 226.96539336 C124.84762743 218.17767743 124.84700493 209.38996749 124.84961617 200.60225075 C124.85116788 195.36896353 124.8514031 190.13568567 124.84807968 184.90239906 C124.84517318 179.9832275 124.84722734 175.06408154 124.85297394 170.14491272 C124.85428649 168.3491336 124.85393329 166.5533523 124.85171127 164.75757408 C124.84174994 155.8832932 124.94963862 147.1023933 125.75167274 138.25526142 C126.07209858 134.66034399 126.17842454 131.08861975 126.265625 127.48046875 C126.30332611 126.0781234 126.34108812 124.67577969 126.37890625 123.2734375 C126.43292204 121.1251947 126.48539103 118.97692432 126.53662109 116.82861328 C126.58828118 114.71244572 126.64543141 112.59647909 126.703125 110.48046875 C126.73341797 109.2382959 126.76371094 107.99612305 126.79492188 106.71630859 C126.984375 103.64453125 126.984375 103.64453125 127.984375 100.64453125 C128.29160767 98.49626935 128.29160767 98.49626935 128.359375 96.20703125 C128.40835937 95.44519531 128.45734375 94.68335937 128.5078125 93.8984375 C127.71889525 90.50138336 125.82201395 89.55788412 122.984375 87.64453125 C120.15712561 86.92352892 120.15712561 86.92352892 117.1171875 86.81640625 C115.42686401 86.70014893 115.42686401 86.70014893 113.70239258 86.58154297 C111.92384888 86.48897217 111.92384888 86.48897217 110.109375 86.39453125 C108.90240967 86.3186377 107.69544434 86.24274414 106.4519043 86.16455078 C97.9482838 85.66087787 89.49882924 85.44227278 80.984375 85.64453125 Z " fill="#050505" transform="translate(356.015625,19.35546875)"/>
<path d="M0 0 C4.1059124 1.3481079 7.73219314 2.9932122 11.125 5.6875 C14.20435067 13.82578393 8.90974676 25.98488806 6.8125 34.1875 C6.40539947 35.79712951 5.99858144 37.4068305 5.59204102 39.01660156 C2.54220135 51.05144891 -0.64314135 63.04695036 -4 75 C-2.90558594 74.7834375 -2.90558594 74.7834375 -1.7890625 74.5625 C4.96041582 73.36259274 11.5884568 72.71435725 18.4375 72.5625 C19.19401855 72.52833984 19.95053711 72.49417969 20.72998047 72.45898438 C24.79868841 72.42652847 27.24812689 72.79459503 30.44921875 75.4140625 C34.12217315 79.13763955 34.86760121 80.63187922 35.375 85.875 C35.25402647 90.20585221 33.84802823 92.69012935 31 96 C26.32028074 99.57697354 20.89360758 100.38976046 15.25 101.5625 C13.72910767 101.8867395 13.72910767 101.8867395 12.17749023 102.2175293 C3.49690352 104.01292403 -5.17613804 105.20644463 -14 106 C-14.17789063 107.93552734 -14.17789063 107.93552734 -14.359375 109.91015625 C-14.91443717 114.87951534 -15.99074931 119.60498683 -17.25 124.4375 C-17.46744873 125.28989258 -17.68489746 126.14228516 -17.90893555 127.02050781 C-20.14517276 135.71529317 -22.54887318 144.36368933 -25 153 C-23.74445313 152.7834375 -22.48890625 152.566875 -21.1953125 152.34375 C1.2011032 148.56814332 1.2011032 148.56814332 5.85546875 150.94921875 C9.14705354 153.42768045 11.05373551 156.02568913 12 160 C12.67285758 166.05571822 11.41592543 169.16077231 8 174 C5.05480605 175.84064739 2.25741115 176.45084751 -1.1484375 177 C-2.14810547 177.1640332 -3.14777344 177.32806641 -4.17773438 177.49707031 C-5.23283203 177.66303711 -6.28792969 177.82900391 -7.375 178 C-8.9847168 178.26055176 -8.9847168 178.26055176 -10.62695312 178.52636719 C-18.40500543 179.77582526 -26.19160305 180.95521449 -34 182 C-34.20471924 183.3159314 -34.20471924 183.3159314 -34.41357422 184.65844727 C-34.93925726 187.65387766 -35.59846592 190.5286052 -36.3828125 193.46484375 C-36.65947754 194.50060547 -36.93614258 195.53636719 -37.22119141 196.60351562 C-37.51944824 197.70373047 -37.81770508 198.80394531 -38.125 199.9375 C-38.4348584 201.08541016 -38.7447168 202.23332031 -39.06396484 203.41601562 C-41.39118903 211.95426164 -43.8992885 220.42582424 -46.51635742 228.87915039 C-48.25977762 234.52020285 -49.90035206 240.1745809 -51.4375 245.875 C-54.29693087 256.41145981 -57.69303921 266.77607464 -61.08056641 277.15234375 C-61.89288628 279.66824897 -62.67852492 282.18985916 -63.44921875 284.71875 C-63.66255859 285.40235596 -63.87589844 286.08596191 -64.09570312 286.7902832 C-64.63786916 288.52839058 -65.16909977 290.26989926 -65.69921875 292.01171875 C-67.33324712 295.76556772 -69.14743606 298.05611922 -72 301 C-77.80955513 302.09614248 -82.21940704 300.15249514 -87 297 C-90.37485901 294.04699836 -90.94864684 292.66353689 -91.296875 288.1640625 C-91.18310103 281.74682244 -89.39929074 275.72781525 -87.75 269.5625 C-87.10096119 267.06169114 -86.45382415 264.56038792 -85.80859375 262.05859375 C-85.49519043 260.84929199 -85.18178711 259.63999023 -84.85888672 258.39404297 C-83.74456175 253.99059051 -82.75789896 249.567242 -81.8125 245.125 C-80.51592456 239.10638697 -78.95618284 233.21892178 -77.20703125 227.31640625 C-75.0749566 219.89064671 -73.31161631 212.35953902 -71.46166992 204.85986328 C-70.06532414 199.20985973 -68.65968824 193.57885305 -67 188 C-67.64324219 188.13575439 -68.28648437 188.27150879 -68.94921875 188.41137695 C-71.96576603 189.04690666 -74.98278491 189.68014819 -78 190.3125 C-79.09038574 190.54106689 -80.18077148 190.76963379 -81.30419922 191.00512695 C-88.77055773 192.56057246 -96.24591229 194.00761689 -103.7578125 195.32421875 C-104.82773437 195.54722656 -105.89765625 195.77023437 -107 196 C-108.07121094 196.17015625 -109.14242187 196.3403125 -110.24609375 196.515625 C-113.39016188 198.21030002 -113.56391843 198.67274224 -114.65234375 201.91015625 C-115.10586906 203.62113731 -115.53238119 205.33941551 -115.9375 207.0625 C-116.43308468 208.9701844 -116.92920162 210.87773059 -117.42578125 212.78515625 C-117.67924316 213.79465332 -117.93270508 214.80415039 -118.19384766 215.84423828 C-119.57623422 221.25572488 -121.10870416 226.62481417 -122.625 232 C-122.9238208 233.07072754 -123.2226416 234.14145508 -123.53051758 235.24462891 C-125.27518469 241.48885428 -127.1020052 247.6915418 -129.05078125 253.875 C-129.98933312 256.96488271 -130.85172773 260.06714703 -131.69921875 263.18286133 C-133.84999945 271.08989151 -136.16340554 278.93383665 -138.625 286.75 C-138.91415283 287.67868896 -139.20330566 288.60737793 -139.5012207 289.56420898 C-143.03317942 300.65494469 -143.03317942 300.65494469 -146.625 304.9375 C-150.47519599 306.6599561 -153.98543551 306.03152004 -158 305 C-161.80801926 302.95495262 -164.996166 300.89634388 -167 297 C-167.23422956 292.16207486 -166.72248335 287.91465055 -165.63671875 283.20703125 C-165.48895493 282.55920181 -165.3411911 281.91137238 -165.18894958 281.24391174 C-164.69657229 279.09814391 -164.19242607 276.95534689 -163.6875 274.8125 C-163.33490163 273.2918809 -162.98253081 271.77120903 -162.63037109 270.25048828 C-159.15699477 255.34539802 -155.43332165 240.5005973 -151.68237305 225.66333008 C-151.45284439 224.75453598 -151.22331573 223.84574188 -150.98683167 222.90940857 C-150.55897654 221.21731359 -150.12991287 219.52552349 -149.69932556 217.8341217 C-148.36841512 212.57617966 -147.14850032 207.30074798 -146 202 C-147.01525757 202.14973267 -147.01525757 202.14973267 -148.05102539 202.30249023 C-150.82457032 202.70962898 -153.5997644 203.10455565 -156.375 203.5 C-157.34050781 203.64308594 -158.30601562 203.78617188 -159.30078125 203.93359375 C-176.18704186 206.31353652 -176.18704186 206.31353652 -179.68920898 203.77612305 C-183.61438094 199.23548413 -184.37253128 194.98675145 -184.26953125 189.21875 C-183.84429518 185.71825597 -182.66403895 184.26443311 -180 182 C-174.67261165 179.79870314 -169.39293974 178.23134375 -163.78125 176.95703125 C-162.66623108 176.69704597 -162.66623108 176.69704597 -161.52868652 176.43180847 C-159.18692712 175.88699205 -156.84353517 175.34962049 -154.5 174.8125 C-152.8983229 174.44124927 -151.29675923 174.06950881 -149.6953125 173.69726562 C-145.79816152 172.79251837 -141.89952959 171.89443711 -138 171 C-134.22531527 157.05791069 -130.47675325 143.11051895 -126.86669922 129.12475586 C-126.6348291 128.22893799 -126.40295898 127.33312012 -126.1640625 126.41015625 C-125.96248535 125.62777588 -125.7609082 124.84539551 -125.55322266 124.03930664 C-125.09301448 122.34287287 -124.55584882 120.66754646 -124 119 C-125.27230469 119.2165625 -126.54460937 119.433125 -127.85546875 119.65625 C-137.39847401 121.19948714 -146.82403469 122.32780878 -156.5 122.4375 C-157.3768042 122.45941406 -158.2536084 122.48132813 -159.15698242 122.50390625 C-163.26893954 122.49105262 -165.44516831 122.34326163 -169.01171875 120.13671875 C-173.23228649 115.60105951 -173.44046117 110.28609075 -173.32421875 104.33984375 C-172.85594474 100.96037231 -171.48264065 99.26984288 -169 97 C-166.16219859 95.10813239 -165.03548843 94.65635253 -161.82324219 94.14624023 C-160.56613434 93.94109047 -160.56613434 93.94109047 -159.28363037 93.73179626 C-157.92893646 93.52231102 -157.92893646 93.52231102 -156.546875 93.30859375 C-155.61329163 93.158423 -154.67970825 93.00825226 -153.71783447 92.85353088 C-150.72961133 92.3746114 -147.73987185 91.9060046 -144.75 91.4375 C-142.7511963 91.11850064 -140.75249696 90.79884667 -138.75390625 90.47851562 C-131.17622967 89.26832497 -123.59978996 88.06384157 -116 87 C-111.19382627 71.57016587 -111.19382627 71.57016587 -106.875 56 C-105.58772464 51.02216695 -104.10336428 46.17214326 -102.4375 41.3125 C-100.89153547 36.79715239 -99.53055607 32.33298832 -98.4375 27.6875 C-96.87615161 21.18772944 -94.94701115 15.02868401 -91.3125 9.375 C-87.59849918 7.16667519 -84.19342414 7.18327746 -80 8 C-76.15488507 9.77517231 -72.98886761 12.01113239 -70 15 C-68.07835066 24.64870246 -71.95151821 35.17480425 -74.34179688 44.44628906 C-74.92226744 46.69841149 -75.48924303 48.95307474 -76.046875 51.2109375 C-76.84010327 54.41635994 -77.6430256 57.61911541 -78.45117188 60.82080078 C-79.55715659 65.21226855 -80.65247496 69.60641195 -81.75 74 C-82.18225492 75.72917585 -82.61454335 77.45834333 -83.046875 79.1875 C-83.36140625 80.445625 -83.6759375 81.70375 -84 83 C-83.33282959 82.91959473 -82.66565918 82.83918945 -81.97827148 82.75634766 C-66.33841009 80.88271819 -50.70167855 79.25694667 -35 78 C-34.91234375 77.24332031 -34.8246875 76.48664063 -34.734375 75.70703125 C-33.70938655 70.53302039 -31.96378001 65.66928256 -30.25 60.6875 C-27.87927301 53.70147166 -25.56304236 46.7262096 -23.5625 39.625 C-21.40429961 32.10248105 -18.98793945 24.66945459 -16.5 17.25 C-16.13205322 16.11771973 -15.76410645 14.98543945 -15.38500977 13.81884766 C-10.1594098 -1.52391147 -10.1594098 -1.52391147 0 0 Z " fill="#020202" transform="translate(387,202)"/>
<path d="M0 0 C5.72248534 4.73271154 10.0158102 10.37459518 11.96484375 17.625 C12.41993663 22.77203633 12.60887595 27.69290339 10.96484375 32.625 C10.8974351 34.18618428 10.87969919 35.7500252 10.90234375 37.3125 C10.91136719 38.12074219 10.92039062 38.92898437 10.9296875 39.76171875 C10.94128906 40.37660156 10.95289063 40.99148437 10.96484375 41.625 C13.47418674 42.8796715 15.2486173 42.78373558 18.05712891 42.83032227 C19.1180777 42.85026749 20.17902649 42.87021271 21.27212524 42.89076233 C22.42111298 42.90747482 23.57010071 42.92418732 24.75390625 42.94140625 C26.51424698 42.9725779 26.51424698 42.9725779 28.31015015 43.00437927 C32.06998679 43.06991983 35.82989497 43.12878076 39.58984375 43.1875 C42.13412207 43.23068092 44.67839308 43.27429507 47.22265625 43.31835938 C53.46997582 43.42560582 59.71736701 43.5273638 65.96484375 43.625 C65.85887375 44.55669762 65.85887375 44.55669762 65.75076294 45.50721741 C65.14464123 51.12931775 64.81621021 56.65611547 64.83203125 62.30859375 C64.83107452 63.08960953 64.8301178 63.87062531 64.82913208 64.67530823 C64.82845791 66.3112903 64.83025831 67.94727517 64.83447266 69.58325195 C64.83982449 72.05361082 64.83450517 74.52378732 64.828125 76.99414062 C64.82500959 85.25589642 64.9607339 93.41028351 65.96484375 101.625 C63.24007352 102.53325674 61.63443433 102.75344058 58.83203125 102.7578125 C57.62160156 102.75974609 57.62160156 102.75974609 56.38671875 102.76171875 C55.54625 102.75785156 54.70578125 102.75398438 53.83984375 102.75 C52.61394531 102.75580078 52.61394531 102.75580078 51.36328125 102.76171875 C50.54859375 102.76042969 49.73390625 102.75914062 48.89453125 102.7578125 C48.16476074 102.75668457 47.43499023 102.75555664 46.68310547 102.75439453 C44.39034777 102.64525482 42.18961693 102.41312542 39.91525269 102.12698364 C34.94630655 101.56824091 30.03645165 101.47024412 25.04003906 101.46386719 C23.61564514 101.45641983 23.61564514 101.45641983 22.16247559 101.44882202 C19.039299 101.43429664 15.91617349 101.42740849 12.79296875 101.421875 C11.7120974 101.41904762 10.63122604 101.41622025 9.51760101 101.41330719 C3.77833313 101.39834079 -1.96090986 101.38909975 -7.70019531 101.38476562 C-12.3877757 101.38040854 -17.07516918 101.3666216 -21.76269531 101.34375 C-47.98630616 101.21830417 -73.68721594 101.28712059 -99.66638184 105.1673584 C-100.89634888 105.34899536 -102.12631592 105.53063232 -103.39355469 105.71777344 C-104.50970154 105.88742615 -105.62584839 106.05707886 -106.77581787 106.23187256 C-111.53866975 106.80634736 -116.24724718 106.80088237 -121.03515625 106.625 C-120.89331929 104.87467156 -120.74652196 103.12474466 -120.59765625 101.375 C-120.51644531 100.40046875 -120.43523437 99.4259375 -120.3515625 98.421875 C-120.03515625 95.625 -120.03515625 95.625 -119.5224762 93.75970459 C-118.96862722 91.33356964 -118.91521738 89.16128025 -118.92163086 86.67285156 C-118.92170639 85.69213684 -118.92178192 84.71142212 -118.92185974 83.70098877 C-118.92702103 82.64981873 -118.93218231 81.59864868 -118.9375 80.515625 C-118.93891495 79.43367859 -118.9403299 78.35173218 -118.94178772 77.23699951 C-118.94738307 73.7829715 -118.95993475 70.32900841 -118.97265625 66.875 C-118.97767185 64.53255302 -118.98223465 62.19010502 -118.98632812 59.84765625 C-118.99735097 54.1067487 -119.01408451 48.36587899 -119.03515625 42.625 C-114.89087316 42.60011516 -110.74663071 42.58205314 -106.60229492 42.57006836 C-105.19506064 42.5650673 -103.78783148 42.5582643 -102.38061523 42.54956055 C-100.34748056 42.53730841 -98.31441511 42.5317293 -96.28125 42.52734375 C-95.06107178 42.52210693 -93.84089355 42.51687012 -92.58374023 42.51147461 C-88.99673397 42.6262292 -85.58032056 43.08592511 -82.03515625 43.625 C-78.93057058 43.83211883 -75.833597 43.85471677 -72.72265625 43.875 C-71.91248047 43.895625 -71.10230469 43.91625 -70.26757812 43.9375 C-67.66137204 43.99034384 -67.66137204 43.99034384 -64.03515625 43.625 C-61.80550462 40.28052255 -61.78593536 39.15607363 -61.76171875 35.25 C-61.74109375 34.18136719 -61.72046875 33.11273438 -61.69921875 32.01171875 C-61.67353837 29.78522972 -61.65509643 27.55864331 -61.64453125 25.33203125 C-61.45513158 16.52494646 -60.06977145 6.72471134 -53.78515625 -0.03125 C-37.97819488 -12.1687382 -15.88023003 -11.486604 0 0 Z " fill="#FCFCFC" transform="translate(345.03515625,27.375)"/>
<path d="M0 0 C-0.64203535 3.42546545 -1.45653798 6.73143259 -2.453125 10.0703125 C-2.7404248 11.040896 -3.02772461 12.01147949 -3.32373047 13.01147461 C-3.62939941 14.03893799 -3.93506836 15.06640137 -4.25 16.125 C-6.82363449 24.83642723 -9.26822855 33.56533565 -11.48925781 42.37353516 C-12.89890195 47.89890195 -12.89890195 47.89890195 -14 49 C-16.85278438 49.57722004 -19.69855874 50.10207308 -22.56640625 50.59375 C-23.43385971 50.74533569 -24.30131317 50.89692139 -25.1950531 51.05310059 C-27.03831696 51.37436752 -28.88192141 51.69368533 -30.72583008 52.01123047 C-33.52700489 52.49388405 -36.32704263 52.98272753 -39.12695312 53.47265625 C-40.91920637 53.7842252 -42.71152223 54.09543423 -44.50390625 54.40625 C-45.33443008 54.55106812 -46.16495392 54.69588623 -47.02064514 54.84509277 C-52.00287071 55.70052503 -56.97926305 56.4098754 -62 57 C-60.60247085 50.44492279 -58.93704101 44.01375755 -57.125 37.5625 C-54.90643235 29.57375503 -52.91250955 21.57282911 -51.20556641 13.45922852 C-50.08946611 8.17893221 -50.08946611 8.17893221 -49 6 C-46.03173828 5.4375 -46.03173828 5.4375 -42.0703125 5 C-41.01286331 4.87818359 -41.01286331 4.87818359 -39.93405151 4.75390625 C-37.66525665 4.49386887 -35.39532681 4.24627274 -33.125 4 C-30.16869189 3.67166383 -27.21306964 3.33765872 -24.2578125 3 C-23.54087219 2.9189502 -22.82393188 2.83790039 -22.08526611 2.75439453 C-17.10326918 2.17477559 -12.20258569 1.38502873 -7.29248047 0.3671875 C-4.82715158 -0.0276852 -2.49257707 -0.06185877 0 0 Z " fill="#FAFAFA" transform="translate(343,311)"/>
<path d="M0 0 C3.9711193 2.57042431 6.97151717 6.12662808 9.08203125 10.34765625 C9.23180164 12.59421212 9.30353299 14.84629393 9.33203125 17.09765625 C9.3578125 18.309375 9.38359375 19.52109375 9.41015625 20.76953125 C8.8173739 27.2336816 5.85803323 31.14022593 1.08203125 35.34765625 C-4.97236612 39.76254424 -11.79045016 39.2641597 -18.91796875 38.34765625 C-22.34725306 36.93132551 -24.49486524 35.12885388 -26.91796875 32.34765625 C-27.44132812 31.76757812 -27.9646875 31.1875 -28.50390625 30.58984375 C-32.12561901 25.80758215 -32.67807526 21.22606034 -32.39453125 15.31640625 C-31.49029842 9.6834804 -29.37671682 5.34239933 -24.91015625 1.71875 C-16.72264384 -3.58349512 -8.84758119 -4.32307382 0 0 Z " fill="#030303" transform="translate(331.91796875,35.65234375)"/>
<path d="M0 0 C2.34960842 0.00502434 4.69921788 0.0095856 7.04882812 0.01367188 C12.76174169 0.02460507 18.47461591 0.04126931 24.1875 0.0625 C21.44706947 2.80293053 18.75756595 2.69745824 15.0625 3.0625 C14.27665527 3.14588623 13.49081055 3.22927246 12.68115234 3.31518555 C6.36649582 3.94357146 0.04707215 4.31313514 -6.28833008 4.66040039 C-7.57505615 4.73121826 -8.86178223 4.80203613 -10.1875 4.875 C-11.17416153 4.92912552 -11.17416153 4.92912552 -12.18075562 4.98434448 C-26.95368806 5.81860202 -41.61204795 7.51174774 -56.29638672 9.2980957 C-99.77638162 14.54672311 -99.77638162 14.54672311 -109.8125 10.0625 C-112.75 7.4375 -112.75 7.4375 -114.8125 5.0625 C-113.68070313 5.38863281 -112.54890625 5.71476563 -111.3828125 6.05078125 C-106.76753645 7.2000357 -102.42351322 7.32879574 -97.6875 7.25 C-96.44407837 7.23815674 -96.44407837 7.23815674 -95.17553711 7.22607422 C-85.15414294 7.08880809 -75.34023798 6.43262991 -65.46875 4.66796875 C-60.45113808 3.83706079 -55.41698018 3.16479623 -50.375 2.5 C-49.43406494 2.37318848 -48.49312988 2.24637695 -47.52368164 2.11572266 C-44.62250429 1.73710163 -41.71980488 1.39069339 -38.8125 1.0625 C-37.47094849 0.90914185 -37.47094849 0.90914185 -36.10229492 0.75268555 C-24.10962754 -0.38952134 -12.03249541 -0.04487526 0 0 Z " fill="#E6E6E6" transform="translate(245.8125,594.9375)"/>
<path d="M0 0 C1.64347916 0.00424484 1.64347916 0.00424484 3.32015991 0.00857544 C6.78386847 0.01967737 10.24730847 0.04476311 13.7109375 0.0703125 C16.07421499 0.08035521 18.43749657 0.08947879 20.80078125 0.09765625 C26.56259002 0.11958389 32.32424456 0.15296053 38.0859375 0.1953125 C35.34580087 2.93544913 32.65601164 2.83082816 28.9609375 3.1953125 C28.20192139 3.27507324 27.44290527 3.35483398 26.66088867 3.43701172 C18.25613333 4.26593405 9.82627162 4.78995108 1.3984375 5.3203125 C0.34278595 5.38702148 0.34278595 5.38702148 -0.73419189 5.45507812 C-2.77704382 5.58259653 -4.82008583 5.70624438 -6.86328125 5.828125 C-8.05268311 5.89918457 -9.24208496 5.97024414 -10.4675293 6.04345703 C-13.95450897 6.19709459 -17.42418245 6.22149147 -20.9140625 6.1953125 C-21.2440625 4.8753125 -21.5740625 3.5553125 -21.9140625 2.1953125 C-14.53036768 0.39751563 -7.58136519 -0.07509929 0 0 Z " fill="#EEEEEE" transform="translate(231.9140625,594.8046875)"/>
<path d="M0 0 C0.66 0 1.32 0 2 0 C3.15356839 8.00173629 3.15231478 15.96317345 3.13037109 24.02832031 C3.12502816 26.36269677 3.13033264 28.69687951 3.13671875 31.03125 C3.13992689 39.07406447 2.95964132 47.00153172 2 55 C1.34 55 0.68 55 0 55 C-0.78314628 48.29134455 -1.14874806 41.69336717 -1.1328125 34.94140625 C-1.13376923 34.03043686 -1.13472595 33.11946747 -1.13571167 32.18089294 C-1.13638646 30.2759494 -1.13458162 28.37100346 -1.13037109 26.46606445 C-1.12496889 23.54568396 -1.13036213 20.6254542 -1.13671875 17.70507812 C-1.1360587 15.84635383 -1.13477904 13.98762962 -1.1328125 12.12890625 C-1.13483673 11.25706192 -1.13686096 10.38521759 -1.13894653 9.48695374 C-1.13579437 8.67858566 -1.13264221 7.87021759 -1.12939453 7.03735352 C-1.12859894 6.32805191 -1.12780334 5.61875031 -1.12698364 4.88795471 C-1 3 -1 3 0 0 Z " fill="#EBEBEB" transform="translate(419,73)"/>
<path d="M0 0 C0.33 0 0.66 0 1 0 C1.33 18.15 1.66 36.3 2 55 C1.34 55 0.68 55 0 55 C-2.25887879 46.24126445 -2.27364633 37.80189354 -2.20581055 28.82202148 C-2.18746481 26.30767727 -2.18530207 23.79370136 -2.18554688 21.27929688 C-2.18063313 19.66145518 -2.17480544 18.04361596 -2.16796875 16.42578125 C-2.16685593 15.68395096 -2.1657431 14.94212067 -2.16459656 14.17781067 C-2.05535417 2.05535417 -2.05535417 2.05535417 0 0 Z " fill="#CDCECE" transform="translate(216,79)"/>
<path d="M0 0 C1.16337891 0.00322266 2.32675781 0.00644531 3.52539062 0.00976562 C4.74033203 0.01814453 5.95527344 0.02652344 7.20703125 0.03515625 C8.43357422 0.03966797 9.66011719 0.04417969 10.92382812 0.04882812 C13.95577793 0.0606256 16.98763031 0.07708704 20.01953125 0.09765625 C20.01953125 0.42765625 20.01953125 0.75765625 20.01953125 1.09765625 C16.38953125 1.42765625 12.75953125 1.75765625 9.01953125 2.09765625 C9.01953125 2.42765625 9.01953125 2.75765625 9.01953125 3.09765625 C-1.87046875 3.09765625 -12.76046875 3.09765625 -23.98046875 3.09765625 C-23.98046875 2.76765625 -23.98046875 2.43765625 -23.98046875 2.09765625 C-22.93246094 2.03707031 -21.88445312 1.97648438 -20.8046875 1.9140625 C-19.42576827 1.82963887 -18.0468627 1.74499178 -16.66796875 1.66015625 C-15.97767578 1.62083984 -15.28738281 1.58152344 -14.57617188 1.54101562 C-9.54492122 1.22504336 -5.06152457 -0.02469036 0 0 Z " fill="#D7D8D8" transform="translate(397.98046875,571.90234375)"/>
<path d="M0 0 C2.64 0 5.28 0 8 0 C8 0.33 8 0.66 8 1 C10.31 1.33 12.62 1.66 15 2 C11.79619983 4.13586678 10.98060033 4.23132175 7.3125 4.125 C6.50425781 4.10695313 5.69601563 4.08890625 4.86328125 4.0703125 C3.94095703 4.03550781 3.94095703 4.03550781 3 4 C2.67 3.01 2.34 2.02 2 1 C1.34 0.67 0.68 0.34 0 0 Z " fill="#F0F0F1" transform="translate(172,601)"/>
</svg>
